<?xml version="1.0" encoding="UTF-8"?>
<svg width="80px" height="80px" viewBox="0 0 80 80" version="1.1" xmlns="http://www.w3.org/2000/svg" xmlns:xlink="http://www.w3.org/1999/xlink">
    <!-- Generator: Sketch 52.6 (67491) - http://www.bohemiancoding.com/sketch -->
    <title>Artboard</title>
    <desc>Created with Sketch.</desc>
    <g id="Artboard" stroke="none" stroke-width="1" fill="none" fill-rule="evenodd">
        <g id="Evergreen" transform="translate(7.000000, 13.000000)">
            <path d="M33,5 L39.4581006,11.301676 L39.4581006,7.9273743 C39.4878959,7.71880715 39.5921779,7.61452514 39.7709497,7.61452514 L42.698324,7.61452514 C42.9068912,7.64432045 43.0111732,7.74860246 43.0111732,7.9273743 L43.0111732,14.8547486 L49,21 C46.33332,23.6517823 45,25.1415254 45,25.4692737 L45,36.6871508 C45,36.895718 44.895718,37 44.6871508,37 L36.6871508,37 C36.4785837,37 36.3743017,36.895718 36.3743017,36.6871508 L36.3743017,27.6145251 L29.6256983,27.6145251 L29.6256983,36.6871508 C29.6256983,36.895718 29.5214163,37 29.3128492,37 L21.3128492,37 C21.104282,37 21,36.895718 21,36.6871508 L21,24.8435754 L17,20.8435754 L33,5 Z M32.8496094,11.8935547 C32.2623669,12.2086604 31.96875,12.6025367 31.96875,13.0751953 L31.96875,13.5048828 C32.1692718,13.5048828 32.412759,13.7054016 32.6992188,14.1064453 L33.3007812,14.1064453 C33.4440111,14.1064453 33.6874983,13.8128285 34.03125,13.2255859 L34.03125,13.0751953 C34.03125,12.4736298 33.6373737,12.0797535 32.8496094,11.8935547 Z" id="a" fill="#98946E"></path>
            <text id="EVERGREEN" font-family="STHeitiSC-Light, Heiti SC" font-size="11" font-weight="300" fill="#8FB9A8">
                <tspan x="2" y="53">EVERGREEN</tspan>
            </text>
            <path d="M55.272482,1 L55.4172662,1 C55.706836,1.28571571 56.320439,1.80713907 57.2580935,2.56428571 C57.1064141,2.7785725 57.0305755,2.94999936 57.0305755,3.07857143 C57.2374111,3.07857143 57.3408273,3.292855 57.3408273,3.72142857 L57.7338129,3.65714286 C57.8992814,3.65714286 58.0095921,4.01428214 58.0647482,4.72857143 C58.2164276,4.72857143 58.2922662,4.58571571 58.2922662,4.3 L58.375,4.3 C58.5266794,4.3 58.7128286,4.96427907 58.9334532,6.29285714 C59.0989217,6.29285714 59.1816547,6.2142865 59.1816547,6.05714286 L59.2643885,6.05714286 C59.4160679,6.05714286 59.5194841,6.35713986 59.5746403,6.95714286 L59.6573741,6.95714286 L59.9676259,6.7 C59.9676259,6.75714314 59.9952036,6.78571429 60.0503597,6.78571429 C59.9952036,7.98572029 59.9469427,8.70714164 59.9055755,8.95 C59.9469427,9.16428679 59.9676259,9.38571314 59.9676259,9.61428571 L59.9676259,9.7 C59.9676259,9.77142893 59.8917873,9.84999957 59.7401079,9.93571429 L59.8228417,10.5142857 L59.8228417,10.6857143 L59.9055755,10.6857143 L60.1330935,10.5142857 L60.2158273,10.5142857 C60.2158273,11.228575 60.1330944,11.5857143 59.9676259,11.5857143 L59.8228417,11.5857143 L59.6573741,11.5 L59.6573741,11.5857143 C60.1399904,11.9571447 60.381295,12.2071422 60.381295,12.3357143 C60.5743415,12.3357143 60.9190623,11.9214327 61.4154676,11.0928571 C61.5119909,11.3500013 61.6154071,11.4857142 61.7257194,11.5 C61.57404,11.8000015 61.4982014,12.1357124 61.4982014,12.5071429 C61.5533576,12.5071429 61.5809353,12.535714 61.5809353,12.5928571 C61.4706229,12.6500003 61.38789,12.6785714 61.3327338,12.6785714 L61.4154676,12.8285714 L61.4154676,12.9142857 L61.25,13.1714286 L61.3327338,13.1714286 L61.6636691,12.8285714 C61.7601923,12.8285714 61.8084532,12.9142849 61.8084532,13.0857143 C61.8084532,13.771432 61.5947264,14.2642842 61.1672662,14.5642857 L61.4154676,14.9928571 C61.7877716,14.7928561 61.9739209,14.4857164 61.9739209,14.0714286 L62.3669065,14.1571429 C62.3669065,14.0857139 62.4496395,14.0000005 62.6151079,13.9 L62.7805755,14.1571429 L62.5323741,15.5714286 C62.9046781,15.5714286 63.0908273,15.7071415 63.0908273,15.9785714 L62.9253597,16.3 L62.7805755,16.2357143 L62.6978417,16.2357143 C62.6978417,16.4214295 62.5599534,16.7499976 62.2841727,17.2214286 L62.6978417,17.3928571 C63.2218252,16.8071399 63.4838129,16.4214295 63.4838129,16.2357143 L63.5665468,16.2357143 C63.6768591,16.2500001 63.7320144,16.2999996 63.7320144,16.3857143 C63.7320144,16.8857168 63.6010205,17.1357143 63.3390288,17.1357143 C63.3803959,17.42143 63.4010791,17.5857141 63.4010791,17.6285714 C63.4010791,17.9285729 63.3528182,18.3428545 63.256295,18.8714286 C63.3114511,18.9714291 63.3390288,19.0857136 63.3390288,19.2142857 L62.6978417,19.8785714 L62.5323741,19.7928571 C62.5323741,19.8642861 62.4289579,20.0571413 62.2221223,20.3714286 L62.4496403,20.3714286 C62.6288978,20.2285707 62.8702023,20.1428573 63.1735612,20.1142857 L63.1735612,20.6928571 C63.1735612,21.0214302 63.0632505,21.2999989 62.8426259,21.5285714 C63.4355545,21.9714308 63.7320144,22.2214283 63.7320144,22.2785714 L63.7320144,22.3428571 C63.7320144,22.4571434 63.6492814,22.5142857 63.4838129,22.5142857 L63.4838129,22.6857143 L63.9802158,22.6857143 L64.3732014,22.7714286 L64.2904676,23.35 L64.2904676,23.5857143 L64.5386691,23.9285714 C64.4145677,24.357145 64.2491018,24.657142 64.0422662,24.8285714 C64.2353127,24.8285714 64.4766173,25.2714241 64.7661871,26.1571429 C65.0557568,26.1571429 65.5659436,25.9071454 66.2967626,25.4071429 C66.3932859,25.4357144 66.4415468,25.4928567 66.4415468,25.5785714 L66.4415468,25.9 C66.1933441,26.1714299 65.9796172,26.6142826 65.8003597,27.2285714 C65.6762584,27.3428577 65.5728421,27.4 65.4901079,27.4 C65.4901079,27.4714289 65.7038348,27.5785707 66.131295,27.7214286 C66.131295,27.7928575 66.1588726,27.8785709 66.2140288,27.9785714 L66.6070144,27.8928571 L66.772482,27.8928571 C66.8414272,27.8928571 66.9172658,27.9785706 67,28.15 C67,28.2500005 66.8414284,28.3 66.5242806,28.3 L66.5242806,28.5571429 C66.5242806,28.7714296 66.3932867,29.0214271 66.131295,29.3071429 C66.131295,29.3500002 66.1588726,29.5142843 66.2140288,29.8 C66.1037165,30.0285726 66.0485612,30.1928566 66.0485612,30.2928571 C66.2967638,30.4071434 66.4277577,30.521428 66.4415468,30.6357143 C65.6969387,30.9500016 65.3246403,31.335712 65.3246403,31.7928571 C64.9799143,31.8642861 64.476622,32.1928542 63.8147482,32.7785714 C62.6840471,32.8928577 62.0152888,32.95 61.8084532,32.95 L61.5809353,32.95 C61.4292558,33.1214294 60.8914914,33.2857135 59.9676259,33.4428571 C59.9676259,33.5142861 59.8917873,33.5999995 59.7401079,33.7 C59.1058122,33.6428569 58.6507808,33.6142857 58.375,33.6142857 C58.2508987,33.6142857 58.0923271,33.6928564 57.8992806,33.85 C57.706234,33.7499995 57.4925072,33.7 57.2580935,33.7 C56.9409457,33.7 56.5686472,33.8071418 56.1411871,34.0214286 C56.1411871,33.9357139 56.0377708,33.8500004 55.8309353,33.7642857 C55.4586312,34.0500014 55.272482,34.3857124 55.272482,34.7714286 C55.272482,35.8142909 56.4376382,36.3357143 58.7679856,36.3357143 C60.0779442,36.3357143 61.0431624,36.4999984 61.6636691,36.8285714 L61.6636691,37 L46.5647482,37 L46.5647482,36.9142857 C46.5647482,36.3428543 48.6951226,36.0142861 52.9559353,35.9285714 C53.4799187,35.7428562 53.7419065,35.6000005 53.7419065,35.5 L53.7419065,34.6 C53.1489779,34.1714264 51.5770511,33.7000026 49.0260791,33.1857143 C49.0260791,32.9428559 48.4952091,32.7500007 47.4334532,32.6071429 C45.6270893,31.7071384 44.7239209,30.4714364 44.7239209,28.9 C44.4481401,28.5857127 44.3102518,28.3357152 44.3102518,28.15 C44.4205641,28.0928569 44.5032971,28.0642857 44.5584532,28.0642857 L44.8066547,28.0642857 L44.7239209,27.4857143 L44.868705,27.4 C44.868705,27.4571431 44.8962827,27.4857143 44.9514388,27.4857143 L44.9514388,27.3142857 L44.3102518,26.8214286 C44.1034162,26.2071398 44,25.8214294 44,25.6642857 L44,25.5785714 C44.013789,25.4642851 44.0689444,25.4071429 44.1654676,25.4071429 C44.675662,25.6357154 45.0479605,25.75 45.2823741,25.75 C45.4064754,25.75 45.5098917,25.5285736 45.5926259,25.0857143 L45.7580935,25 C45.8684058,25 45.9235612,25.0857134 45.9235612,25.2571429 C46.0062954,25.2571429 46.1097116,25.1428583 46.2338129,24.9142857 C46.0407664,24.5999984 45.7787786,24.3500009 45.4478417,24.1642857 C45.4478417,24.1214284 45.3099534,23.7357179 45.0341727,23.0071429 C45.144485,22.8357134 45.1996403,22.6714294 45.1996403,22.5142857 L45.2823741,22.5142857 C45.4340535,22.5142857 45.5098921,22.6285703 45.5098921,22.8571429 L45.7580935,22.8571429 L45.7580935,22.7714286 C45.7580935,22.4857129 45.6270996,22.3428571 45.3651079,22.3428571 L45.3651079,22.0214286 L45.4478417,21.85 C46.288973,22.4785746 46.819843,22.8142855 47.0404676,22.8571429 L46.4820144,22.1928571 L46.4820144,22.1071429 L46.5647482,22.1071429 L46.9577338,22.1928571 C46.9991009,21.8071409 47.1576725,21.6142857 47.4334532,21.6142857 L47.4334532,21.5285714 L47.0404676,21.0357143 L47.0404676,20.95 L47.1232014,20.7785714 C47.0128891,20.7785714 46.9577338,20.7214291 46.9577338,20.6071429 L46.9577338,20.5214286 C47.2197255,20.292856 47.3507194,20.1000008 47.3507194,19.9428571 L47.4334532,19.9428571 L47.8264388,20.4571429 L48.0746403,20.4571429 L48.0746403,20.2857143 C48.0746403,19.8714265 47.8609134,19.3714315 47.4334532,18.7857143 L47.3507194,18.7857143 L47.3507194,18.9571429 L47.2679856,18.9571429 C46.7991583,18.5428551 46.5647482,18.0500029 46.5647482,17.4785714 L46.6267986,17.4785714 C46.7508999,17.4785714 46.8336329,17.6142844 46.875,17.8857143 L47.0404676,17.8857143 L47.3507194,17.3928571 C47.4610317,17.5642866 47.5161871,17.6999995 47.5161871,17.8 L47.7643885,17.6285714 C48.1366925,17.857144 48.3986803,17.9714286 48.5503597,17.9714286 L48.7158273,17.9714286 L48.7158273,17.7142857 L48.6330935,17.5428571 L48.3228417,17.7142857 C47.9919048,17.0714254 47.8264388,16.3857179 47.8264388,15.6571429 L48.3228417,15.4857143 C48.5710444,15.9857168 48.8606099,16.2357143 49.1915468,16.2357143 L49.3570144,16.2357143 C49.4811157,16.121428 49.6121096,16.0642857 49.75,16.0642857 L49.75,15.7214286 C49.75,15.5499991 49.5914284,15.221431 49.2742806,14.7357143 L49.1915468,14.1571429 C49.3018591,14.0999997 49.3845921,14.0714286 49.4397482,14.0714286 C49.3294359,13.8571418 49.1915476,13.75 49.0260791,13.75 L49.1088129,13.3214286 L49.1088129,12.8285714 L49.2742806,12.8285714 C49.798264,13.6000039 50.1154071,13.9857143 50.2257194,13.9857143 C50.4601331,13.9857143 50.5980214,13.6857173 50.6393885,13.0857143 C50.5566543,13.0857143 50.4463436,12.9714297 50.3084532,12.7428571 C50.4187655,12.5285704 50.4739209,12.3642863 50.4739209,12.25 C50.4187647,11.9785701 50.1774602,11.6214308 49.75,11.1785714 L49.8327338,10.7714286 C49.6121092,10.0857109 49.5017986,9.64285814 49.5017986,9.44285714 L49.75,9.44285714 C49.75,9.585715 49.8051553,9.74999907 49.9154676,9.93571429 C50.0119909,9.87857114 50.0878295,9.85 50.1429856,9.85 L50.1429856,9.52857143 L50.0809353,9.35714286 L50.2257194,9.27142857 C50.2946646,9.27142857 50.5359692,9.54999721 50.9496403,10.1071429 L51.0323741,10.1071429 L51.0323741,10.0214286 L50.4739209,8.2 C50.6118112,7.92857007 50.7152275,7.79285714 50.7841727,7.79285714 L50.8669065,7.79285714 L50.8669065,7.62142857 L50.7841727,7.04285714 L50.9496403,6.95714286 L51.1151079,6.95714286 L51.3426259,7.12857143 L51.3426259,7.04285714 C51.1357903,6.19999579 51.0323741,5.65000129 51.0323741,5.39285714 L51.0323741,4.96428571 C51.0461631,4.86428521 51.1013185,4.81428571 51.1978417,4.81428571 C51.2667869,5.14285879 51.3426255,5.30714286 51.4253597,5.30714286 L51.6735612,5.30714286 C51.6735612,4.97856979 51.7218221,4.81428571 51.8183453,4.81428571 C52.0389699,5.08571564 52.1768582,5.22142857 52.2320144,5.22142857 L52.397482,5.13571429 C52.397482,5.27857214 52.5284759,5.41428507 52.7904676,5.54285714 C52.9007799,4.99999729 52.9559353,4.642858 52.9559353,4.47142857 L52.8732014,3.72142857 L53.0179856,3.72142857 L53.0179856,3.89285714 C53.1282979,3.89285714 53.1834532,3.83571486 53.1834532,3.72142857 C53.1834532,3.67857121 53.1282979,3.40714536 53.0179856,2.90714286 L53.1007194,2.90714286 C53.1420865,2.90714286 53.2799748,3.09999807 53.5143885,3.48571429 L53.5764388,3.31428571 L53.5764388,2.56428571 C53.7419073,2.56428571 53.8246403,2.54285736 53.8246403,2.5 L53.7419065,2.07142857 L53.8246403,2.07142857 C53.9349526,2.07142857 53.9901079,2.157142 53.9901079,2.32857143 L54.2176259,2.32857143 L54.0728417,1.75 L54.2176259,1.66428571 C54.3830944,2.10714507 54.4658273,2.38571371 54.4658273,2.5 L54.631295,2.5 L54.631295,1.75 C54.631295,1.66428529 54.7347112,1.55000071 54.9415468,1.40714286 C55.0518591,1.464286 55.1345921,1.49285714 55.1897482,1.49285714 C55.2449044,1.40714243 55.272482,1.24285836 55.272482,1 Z M51.5810547,7.53808594 L51.5810547,7.62402344 C51.6383466,7.95345217 51.7171219,8.11816406 51.8173828,8.11816406 L52.0751953,8.11816406 C52.1897792,8.26139395 52.2470703,8.37597613 52.2470703,8.46191406 L52.4189453,8.46191406 L52.4189453,8.37597656 C52.2470695,7.98925588 51.9964209,7.7099618 51.6669922,7.53808594 L51.5810547,7.53808594 Z M51.8818359,10.2041016 L52.1181641,10.2041016 L52.1181641,9.79589844 C52.0035802,9.79589844 51.9248049,9.93196479 51.8818359,10.2041016 Z M61.7099609,19.9570312 C61.7099609,20.0429692 61.7958976,20.1289058 61.9677734,20.2148438 L62.1181641,20.2148438 C62.232748,20.2148438 62.2900391,20.1575527 62.2900391,20.0429688 L61.9677734,19.7851562 L61.8818359,19.7851562 C61.767252,19.8138022 61.7099609,19.8710933 61.7099609,19.9570312 Z M45.5810547,28.4951172 C45.7099616,29.1682976 45.9606101,29.5048828 46.3330078,29.5048828 L46.4189453,29.5048828 L46.4189453,29.3330078 C46.1897775,29.3330078 46.0751953,29.2757167 46.0751953,29.1611328 C46.1611332,28.917642 46.2757154,28.695639 46.4189453,28.4951172 L45.5810547,28.4951172 Z" id="t" fill="#8FB9A8"></path>
            <path d="M11.272482,0 L11.4172662,0 C11.706836,0.285715714 12.320439,0.807139071 13.2580935,1.56428571 C13.1064141,1.7785725 13.0305755,1.94999936 13.0305755,2.07857143 C13.2374111,2.07857143 13.3408273,2.292855 13.3408273,2.72142857 L13.7338129,2.65714286 C13.8992814,2.65714286 14.0095921,3.01428214 14.0647482,3.72857143 C14.2164276,3.72857143 14.2922662,3.58571571 14.2922662,3.3 L14.375,3.3 C14.5266794,3.3 14.7128286,3.96427907 14.9334532,5.29285714 C15.0989217,5.29285714 15.1816547,5.2142865 15.1816547,5.05714286 L15.2643885,5.05714286 C15.4160679,5.05714286 15.5194841,5.35713986 15.5746403,5.95714286 L15.6573741,5.95714286 L15.9676259,5.7 C15.9676259,5.75714314 15.9952036,5.78571429 16.0503597,5.78571429 C15.9952036,6.98572029 15.9469427,7.70714164 15.9055755,7.95 C15.9469427,8.16428679 15.9676259,8.38571314 15.9676259,8.61428571 L15.9676259,8.7 C15.9676259,8.77142893 15.8917873,8.84999957 15.7401079,8.93571429 L15.8228417,9.51428571 L15.8228417,9.68571429 L15.9055755,9.68571429 L16.1330935,9.51428571 L16.2158273,9.51428571 C16.2158273,10.228575 16.1330944,10.5857143 15.9676259,10.5857143 L15.8228417,10.5857143 L15.6573741,10.5 L15.6573741,10.5857143 C16.1399904,10.9571447 16.381295,11.2071422 16.381295,11.3357143 C16.5743415,11.3357143 16.9190623,10.9214327 17.4154676,10.0928571 C17.5119909,10.3500013 17.6154071,10.4857142 17.7257194,10.5 C17.57404,10.8000015 17.4982014,11.1357124 17.4982014,11.5071429 C17.5533576,11.5071429 17.5809353,11.535714 17.5809353,11.5928571 C17.4706229,11.6500003 17.38789,11.6785714 17.3327338,11.6785714 L17.4154676,11.8285714 L17.4154676,11.9142857 L17.25,12.1714286 L17.3327338,12.1714286 L17.6636691,11.8285714 C17.7601923,11.8285714 17.8084532,11.9142849 17.8084532,12.0857143 C17.8084532,12.771432 17.5947264,13.2642842 17.1672662,13.5642857 L17.4154676,13.9928571 C17.7877716,13.7928561 17.9739209,13.4857164 17.9739209,13.0714286 L18.3669065,13.1571429 C18.3669065,13.0857139 18.4496395,13.0000005 18.6151079,12.9 L18.7805755,13.1571429 L18.5323741,14.5714286 C18.9046781,14.5714286 19.0908273,14.7071415 19.0908273,14.9785714 L18.9253597,15.3 L18.7805755,15.2357143 L18.6978417,15.2357143 C18.6978417,15.4214295 18.5599534,15.7499976 18.2841727,16.2214286 L18.6978417,16.3928571 C19.2218252,15.8071399 19.4838129,15.4214295 19.4838129,15.2357143 L19.5665468,15.2357143 C19.6768591,15.2500001 19.7320144,15.2999996 19.7320144,15.3857143 C19.7320144,15.8857168 19.6010205,16.1357143 19.3390288,16.1357143 C19.3803959,16.42143 19.4010791,16.5857141 19.4010791,16.6285714 C19.4010791,16.9285729 19.3528182,17.3428545 19.256295,17.8714286 C19.3114511,17.9714291 19.3390288,18.0857136 19.3390288,18.2142857 L18.6978417,18.8785714 L18.5323741,18.7928571 C18.5323741,18.8642861 18.4289579,19.0571413 18.2221223,19.3714286 L18.4496403,19.3714286 C18.6288978,19.2285707 18.8702023,19.1428573 19.1735612,19.1142857 L19.1735612,19.6928571 C19.1735612,20.0214302 19.0632505,20.2999989 18.8426259,20.5285714 C19.4355545,20.9714308 19.7320144,21.2214283 19.7320144,21.2785714 L19.7320144,21.3428571 C19.7320144,21.4571434 19.6492814,21.5142857 19.4838129,21.5142857 L19.4838129,21.6857143 L19.9802158,21.6857143 L20.3732014,21.7714286 L20.2904676,22.35 L20.2904676,22.5857143 L20.5386691,22.9285714 C20.4145677,23.357145 20.2491018,23.657142 20.0422662,23.8285714 C20.2353127,23.8285714 20.4766173,24.2714241 20.7661871,25.1571429 C21.0557568,25.1571429 21.5659436,24.9071454 22.2967626,24.4071429 C22.3932859,24.4357144 22.4415468,24.4928567 22.4415468,24.5785714 L22.4415468,24.9 C22.1933441,25.1714299 21.9796172,25.6142826 21.8003597,26.2285714 C21.6762584,26.3428577 21.5728421,26.4 21.4901079,26.4 C21.4901079,26.4714289 21.7038348,26.5785707 22.131295,26.7214286 C22.131295,26.7928575 22.1588726,26.8785709 22.2140288,26.9785714 L22.6070144,26.8928571 L22.772482,26.8928571 C22.8414272,26.8928571 22.9172658,26.9785706 23,27.15 C23,27.2500005 22.8414284,27.3 22.5242806,27.3 L22.5242806,27.5571429 C22.5242806,27.7714296 22.3932867,28.0214271 22.131295,28.3071429 C22.131295,28.3500002 22.1588726,28.5142843 22.2140288,28.8 C22.1037165,29.0285726 22.0485612,29.1928566 22.0485612,29.2928571 C22.2967638,29.4071434 22.4277577,29.521428 22.4415468,29.6357143 C21.6969387,29.9500016 21.3246403,30.335712 21.3246403,30.7928571 C20.9799143,30.8642861 20.476622,31.1928542 19.8147482,31.7785714 C18.6840471,31.8928577 18.0152888,31.95 17.8084532,31.95 L17.5809353,31.95 C17.4292558,32.1214294 16.8914914,32.2857135 15.9676259,32.4428571 C15.9676259,32.5142861 15.8917873,32.5999995 15.7401079,32.7 C15.1058122,32.6428569 14.6507808,32.6142857 14.375,32.6142857 C14.2508987,32.6142857 14.0923271,32.6928564 13.8992806,32.85 C13.706234,32.7499995 13.4925072,32.7 13.2580935,32.7 C12.9409457,32.7 12.5686472,32.8071418 12.1411871,33.0214286 C12.1411871,32.9357139 12.0377708,32.8500004 11.8309353,32.7642857 C11.4586312,33.0500014 11.272482,33.3857124 11.272482,33.7714286 C11.272482,34.8142909 12.4376382,35.3357143 14.7679856,35.3357143 C16.0779442,35.3357143 17.0431624,35.4999984 17.6636691,35.8285714 L17.6636691,36 L2.5647482,36 L2.5647482,35.9142857 C2.5647482,35.3428543 4.69512258,35.0142861 8.95593525,34.9285714 C9.47991869,34.7428562 9.74190647,34.6000005 9.74190647,34.5 L9.74190647,33.6 C9.14897785,33.1714264 7.57705112,32.7000026 5.02607914,32.1857143 C5.02607914,31.9428559 4.49520915,31.7500007 3.43345324,31.6071429 C1.62708929,30.7071384 0.723920863,29.4714364 0.723920863,27.9 C0.448140108,27.5857127 0.310251799,27.3357152 0.310251799,27.15 C0.420564101,27.0928569 0.503297086,27.0642857 0.558453237,27.0642857 L0.806654676,27.0642857 L0.723920863,26.4857143 L0.868705036,26.4 C0.868705036,26.4571431 0.896282698,26.4857143 0.951438849,26.4857143 L0.951438849,26.3142857 L0.310251799,25.8214286 C0.103416232,25.2071398 0,24.8214294 0,24.6642857 L0,24.5785714 C0.0137890378,24.4642851 0.0689443615,24.4071429 0.165467626,24.4071429 C0.675662023,24.6357154 1.04796046,24.75 1.2823741,24.75 C1.40647544,24.75 1.50989167,24.5285736 1.5926259,24.0857143 L1.75809353,24 C1.86840583,24 1.92356115,24.0857134 1.92356115,24.2571429 C2.00629538,24.2571429 2.10971161,24.1428583 2.23381295,23.9142857 C2.04076642,23.5999984 1.77877863,23.3500009 1.44784173,23.1642857 C1.44784173,23.1214284 1.30995342,22.7357179 1.03417266,22.0071429 C1.14448496,21.8357134 1.19964029,21.6714294 1.19964029,21.5142857 L1.2823741,21.5142857 C1.43405352,21.5142857 1.50989209,21.6285703 1.50989209,21.8571429 L1.75809353,21.8571429 L1.75809353,21.7714286 C1.75809353,21.4857129 1.62709963,21.3428571 1.36510791,21.3428571 L1.36510791,21.0214286 L1.44784173,20.85 C2.28897303,21.4785746 2.81984302,21.8142855 3.04046763,21.8571429 L2.48201439,21.1928571 L2.48201439,21.1071429 L2.5647482,21.1071429 L2.95773381,21.1928571 C2.99910093,20.8071409 3.15767248,20.6142857 3.43345324,20.6142857 L3.43345324,20.5285714 L3.04046763,20.0357143 L3.04046763,19.95 L3.12320144,19.7785714 C3.01288914,19.7785714 2.95773381,19.7214291 2.95773381,19.6071429 L2.95773381,19.5214286 C3.21972553,19.292856 3.35071942,19.1000008 3.35071942,18.9428571 L3.43345324,18.9428571 L3.82643885,19.4571429 L4.07464029,19.4571429 L4.07464029,19.2857143 C4.07464029,18.8714265 3.86091341,18.3714315 3.43345324,17.7857143 L3.35071942,17.7857143 L3.35071942,17.9571429 L3.26798561,17.9571429 C2.79915833,17.5428551 2.5647482,17.0500029 2.5647482,16.4785714 L2.62679856,16.4785714 C2.7508999,16.4785714 2.83363289,16.6142844 2.875,16.8857143 L3.04046763,16.8857143 L3.35071942,16.3928571 C3.46103173,16.5642866 3.51618705,16.6999995 3.51618705,16.8 L3.76438849,16.6285714 C4.13669251,16.857144 4.3986803,16.9714286 4.55035971,16.9714286 L4.71582734,16.9714286 L4.71582734,16.7142857 L4.63309353,16.5428571 L4.32284173,16.7142857 C3.99190482,16.0714254 3.82643885,15.3857179 3.82643885,14.6571429 L4.32284173,14.4857143 C4.57104441,14.9857168 4.86060986,15.2357143 5.19154676,15.2357143 L5.35701439,15.2357143 C5.48111573,15.121428 5.61210962,15.0642857 5.75,15.0642857 L5.75,14.7214286 C5.75,14.5499991 5.59142844,14.221431 5.27428058,13.7357143 L5.19154676,13.1571429 C5.30185906,13.0999997 5.38459205,13.0714286 5.4397482,13.0714286 C5.3294359,12.8571418 5.19154759,12.75 5.02607914,12.75 L5.10881295,12.3214286 L5.10881295,11.8285714 L5.27428058,11.8285714 C5.79826401,12.6000039 6.11540712,12.9857143 6.22571942,12.9857143 C6.46013307,12.9857143 6.59802138,12.6857173 6.63938849,12.0857143 C6.55665426,12.0857143 6.44634362,11.9714297 6.30845324,11.7428571 C6.41876554,11.5285704 6.47392086,11.3642863 6.47392086,11.25 C6.41876471,10.9785701 6.17746017,10.6214308 5.75,10.1785714 L5.83273381,9.77142857 C5.61210921,9.08571086 5.50179856,8.64285814 5.50179856,8.44285714 L5.75,8.44285714 C5.75,8.585715 5.80515532,8.74999907 5.91546763,8.93571429 C6.01199089,8.87857114 6.08782946,8.85 6.14298561,8.85 L6.14298561,8.52857143 L6.08093525,8.35714286 L6.22571942,8.27142857 C6.29466461,8.27142857 6.53596915,8.54999721 6.94964029,9.10714286 L7.0323741,9.10714286 L7.0323741,9.02142857 L6.47392086,7.2 C6.61181124,6.92857007 6.71522747,6.79285714 6.78417266,6.79285714 L6.86690647,6.79285714 L6.86690647,6.62142857 L6.78417266,6.04285714 L6.94964029,5.95714286 L7.11510791,5.95714286 L7.3426259,6.12857143 L7.3426259,6.04285714 C7.13579033,5.19999579 7.0323741,4.65000129 7.0323741,4.39285714 L7.0323741,3.96428571 C7.04616314,3.86428521 7.10131846,3.81428571 7.19784173,3.81428571 C7.26678692,4.14285879 7.34262549,4.30714286 7.42535971,4.30714286 L7.67356115,4.30714286 C7.67356115,3.97856979 7.72182206,3.81428571 7.81834532,3.81428571 C8.03896993,4.08571564 8.17685824,4.22142857 8.23201439,4.22142857 L8.39748201,4.13571429 C8.39748201,4.27857214 8.52847591,4.41428507 8.79046763,4.54285714 C8.90077993,3.99999729 8.95593525,3.642858 8.95593525,3.47142857 L8.87320144,2.72142857 L9.01798561,2.72142857 L9.01798561,2.89285714 C9.12829791,2.89285714 9.18345324,2.83571486 9.18345324,2.72142857 C9.18345324,2.67857121 9.12829791,2.40714536 9.01798561,1.90714286 L9.10071942,1.90714286 C9.14208654,1.90714286 9.27997485,2.09999807 9.51438849,2.48571429 L9.57643885,2.31428571 L9.57643885,1.56428571 C9.7419073,1.56428571 9.82464029,1.54285736 9.82464029,1.5 L9.74190647,1.07142857 L9.82464029,1.07142857 C9.93495259,1.07142857 9.99010791,1.157142 9.99010791,1.32857143 L10.2176259,1.32857143 L10.0728417,0.75 L10.2176259,0.664285714 C10.3830944,1.10714507 10.4658273,1.38571371 10.4658273,1.5 L10.631295,1.5 L10.631295,0.75 C10.631295,0.664285286 10.7347112,0.550000714 10.9415468,0.407142857 C11.0518591,0.464286 11.1345921,0.492857143 11.1897482,0.492857143 C11.2449044,0.407142429 11.272482,0.242858357 11.272482,0 Z M7.58105469,6.53808594 L7.58105469,6.62402344 C7.63834664,6.95345217 7.71712189,7.11816406 7.81738281,7.11816406 L8.07519531,7.11816406 C8.18977922,7.26139395 8.24707031,7.37597613 8.24707031,7.46191406 L8.41894531,7.46191406 L8.41894531,7.37597656 C8.24706945,6.98925588 7.99642092,6.7099618 7.66699219,6.53808594 L7.58105469,6.53808594 Z M7.88183594,9.20410156 L8.11816406,9.20410156 L8.11816406,8.79589844 C8.00358016,8.79589844 7.9248049,8.93196479 7.88183594,9.20410156 Z M17.7099609,18.9570312 C17.7099609,19.0429692 17.7958976,19.1289058 17.9677734,19.2148438 L18.1181641,19.2148438 C18.232748,19.2148438 18.2900391,19.1575527 18.2900391,19.0429688 L17.9677734,18.7851562 L17.8818359,18.7851562 C17.767252,18.8138022 17.7099609,18.8710933 17.7099609,18.9570312 Z M1.58105469,27.4951172 C1.70996158,28.1682976 1.96061012,28.5048828 2.33300781,28.5048828 L2.41894531,28.5048828 L2.41894531,28.3330078 C2.1897775,28.3330078 2.07519531,28.2757167 2.07519531,28.1611328 C2.16113324,27.917642 2.27571543,27.695639 2.41894531,27.4951172 L1.58105469,27.4951172 Z" id="t" fill="#8FB9A8" transform="translate(11.500000, 18.000000) scale(-1, 1) translate(-11.500000, -18.000000) "></path>
            <path d="M9,37 L15.1614456,38.9254517 C21.5145955,40.9108111 28.3654683,40.5829607 34.5,38 L34.5,38 C40.4879411,35.4787617 47.3085981,35.8906275 52.9496455,39.1140831 L58,42" id="Path-3" stroke="#8FB9A8" stroke-linecap="round"></path>
        </g>
    </g>
</svg>