<?xml version="1.0" encoding="UTF-8"?>
<svg width="138px" height="150px" viewBox="0 0 138 150" version="1.1" xmlns="http://www.w3.org/2000/svg" xmlns:xlink="http://www.w3.org/1999/xlink">
    <!-- Generator: Sketch 52.6 (67491) - http://www.bohemiancoding.com/sketch -->
    <title>Leafy</title>
    <desc>Created with Sketch.</desc>
    <g id="Page-1" stroke="none" stroke-width="1" fill="none" fill-rule="evenodd">
        <g id="Artboard" transform="translate(-39.000000, -51.000000)" fill="#8FB9A8">
            <g id="Leafy" transform="translate(38.000000, 40.000000)">
                <path d="M36.9077676,151.395416 C38.8346945,138.175123 44.593487,127.376651 54.1841452,119 C57.3443152,116.239852 63.4696256,111.324213 71.1841452,108 C79.7756452,104.297893 90.1722591,102.175632 97.1841452,99 C103.110988,96.3157762 111.140779,91.3157762 121.273518,84 C107.805162,91.2221597 98.7753711,95.555493 94.1841452,97 C77.1525867,102.358527 62.5304203,106.303445 53.2735183,112 C40.3591118,119.947327 32.8530002,130.531358 30.7551833,143.752094 C28.1076405,141.666732 26.6426812,139.384611 26.3603053,136.905732 C25.9219584,133.057639 25.1453861,123.906879 29.2735183,115 C33.7243667,105.396827 43.2878577,96.0436218 48.1994564,92.9617834 C57.6366693,87.0402971 69.6032182,83.7803874 73.3235576,82.9745223 C97.8888508,77.6534183 113.735638,77.3976592 119.287592,75.9834395 C127.095864,73.9944798 133.666667,71.3333333 139,68 C133.220985,83.749849 128.648619,95.3995305 125.282901,102.949045 C120.042063,114.704568 117.289156,118.928662 107.296974,132.910828 C97.3047929,146.892994 78.6060221,158.549466 55.3376312,160.875159 C48.676177,161.540977 43.3470136,159.543524 39.350141,154.882803 L36.9077676,151.395416 Z" id="Combined-Shape"></path>
                <path d="M1.83105469,14.5253906 C1.83105469,13.8092412 2.08333081,13.1988958 2.58789062,12.6943359 C3.09245044,12.1897761 3.7027959,11.9375 4.41894531,11.9375 C5.13509473,11.9375 5.74544019,12.1897761 6.25,12.6943359 C6.75455981,13.1988958 7.00683594,13.8092412 7.00683594,14.5253906 L7.00683594,45.8242188 L25.1220703,45.8242188 C25.8382197,45.8242188 26.4485652,46.0764949 26.953125,46.5810547 C27.4576848,47.0856145 27.7099609,47.69596 27.7099609,48.4121094 C27.7099609,49.1282588 27.4576848,49.7386042 26.953125,50.2431641 C26.4485652,50.7477239 25.8382197,51 25.1220703,51 L4.41894531,51 C4.04459448,51 3.70280103,50.9348965 3.39355469,50.8046875 C3.08430835,50.6744785 2.81168738,50.4913749 2.57568359,50.2553711 C2.33967981,50.0193673 2.15657617,49.7467463 2.02636719,49.4375 C1.8961582,49.1282537 1.83105469,48.7864602 1.83105469,48.4121094 L1.83105469,14.5253906 Z M53.1494141,34.7890625 C52.87272,33.8938757 52.461754,33.0760128 51.9165039,32.3354492 C51.3712538,31.5948856 50.7364945,30.9601263 50.012207,30.4311523 C49.2879196,29.9021783 48.4904015,29.4912124 47.6196289,29.1982422 C46.7488563,28.905272 45.849614,28.7587891 44.921875,28.7587891 C43.994136,28.7587891 43.0908247,28.905272 42.2119141,29.1982422 C41.3330034,29.4912124 40.5273474,29.9021783 39.7949219,30.4311523 C39.0624963,30.9601263 38.4277371,31.5948856 37.890625,32.3354492 C37.3535129,33.0760128 36.9547539,33.8938757 36.6943359,34.7890625 L53.1494141,34.7890625 Z M52.0507812,43.3095703 C52.7832068,43.3095703 53.3894833,43.5496395 53.8696289,44.0297852 C54.3497745,44.5099308 54.5898438,45.1162073 54.5898438,45.8486328 C54.5898438,46.5647822 54.3457056,47.1751277 53.8574219,47.6796875 C51.3346228,49.8932402 48.356137,51 44.921875,51 C41.1458145,51 37.9231904,49.6653779 35.2539062,46.9960938 C32.5846221,44.3268096 31.25,41.1041855 31.25,37.328125 C31.25,33.5520645 32.5846221,30.3294404 35.2539062,27.6601562 C37.9231904,24.9908721 41.1458145,23.65625 44.921875,23.65625 C48.6653833,23.65625 51.8880073,24.9908721 54.5898438,27.6601562 C55.9244858,28.9785222 56.9254524,30.4474203 57.5927734,32.0668945 C58.2600945,33.6863688 58.59375,35.4400947 58.59375,37.328125 C58.59375,38.0605505 58.3455428,38.666827 57.8491211,39.1469727 C57.3526993,39.6271183 56.7464229,39.8671875 56.0302734,39.8671875 L36.6943359,39.8671875 C36.97103,40.7623743 37.377927,41.5802372 37.9150391,42.3208008 C38.4521511,43.0613644 39.0828414,43.6961237 39.8071289,44.2250977 C40.5314164,44.7540717 41.3289344,45.1650376 42.199707,45.4580078 C43.0704796,45.750978 43.9778599,45.8974609 44.921875,45.8974609 C45.9960991,45.8974609 46.9807898,45.7347021 47.8759766,45.4091797 C48.7711633,45.0836572 49.6012332,44.5953809 50.3662109,43.9443359 C50.8544946,43.5374329 51.4160125,43.3258464 52.0507812,43.3095703 Z M76.171875,28.7587891 C74.9674419,28.7587891 73.8444063,28.9866514 72.8027344,29.4423828 C71.7610625,29.8981143 70.8577512,30.5125287 70.0927734,31.2856445 C69.3277957,32.0587604 68.7215192,32.9661406 68.2739258,34.0078125 C67.8263324,35.0494844 67.6025391,36.1562441 67.6025391,37.328125 C67.6025391,38.5000059 67.8263324,39.6067656 68.2739258,40.6484375 C68.7215192,41.6901094 69.3277957,42.5974896 70.0927734,43.3706055 C70.8577512,44.1437213 71.7610625,44.7581357 72.8027344,45.2138672 C73.8444063,45.6695986 74.9674419,45.8974609 76.171875,45.8974609 C77.360032,45.8974609 78.4749297,45.6695986 79.5166016,45.2138672 C80.5582734,44.7581357 81.4656537,44.1396523 82.2387695,43.3583984 C83.0118854,42.5771445 83.6222308,41.6697643 84.0698242,40.6362305 C84.5174176,39.6026967 84.7412109,38.5000059 84.7412109,37.328125 C84.7412109,36.1562441 84.5174176,35.0535533 84.0698242,34.0200195 C83.6222308,32.9864857 83.0118854,32.0791055 82.2387695,31.2978516 C81.4656537,30.5165977 80.5582734,29.8981143 79.5166016,29.4423828 C78.4749297,28.9866514 77.360032,28.7587891 76.171875,28.7587891 Z M84.7412109,48.4609375 L84.7412109,47.9726562 C83.5205017,48.9492236 82.1940176,49.6979141 80.7617188,50.21875 C79.3294199,50.7395859 77.7994873,51 76.171875,51 C72.3958145,51 69.1731904,49.6653779 66.5039062,46.9960938 C63.8346221,44.3268096 62.5,41.1041855 62.5,37.328125 C62.5,33.5520645 63.8346221,30.3294404 66.5039062,27.6601562 C69.1731904,24.9908721 72.3958145,23.65625 76.171875,23.65625 C79.9153833,23.65625 83.1380073,24.9908721 85.8398438,27.6601562 C88.5091279,30.3294404 89.84375,33.5520645 89.84375,37.328125 L89.84375,48.4609375 C89.84375,49.1608108 89.5955428,49.7589493 89.0991211,50.2553711 C88.6026993,50.7517928 88.0045608,51 87.3046875,51 C86.5885381,51 85.9822616,50.7517928 85.4858398,50.2553711 C84.9894181,49.7589493 84.7412109,49.1608108 84.7412109,48.4609375 Z M108.911133,17.0644531 C104.418923,17.0644531 102.172852,19.3023865 102.172852,23.7783203 L102.172852,25.0478516 L107.080078,25.0478516 C107.779951,25.0478516 108.37809,25.2960587 108.874512,25.7924805 C109.370933,26.2889022 109.619141,26.8870408 109.619141,27.5869141 C109.619141,28.3030635 109.370933,28.90934 108.874512,29.4057617 C108.37809,29.9021835 107.779951,30.1503906 107.080078,30.1503906 L102.172852,30.1503906 L102.172852,48.4609375 C102.172852,48.8027361 102.107748,49.1282537 101.977539,49.4375 C101.84733,49.7467463 101.668295,50.0193673 101.44043,50.2553711 C101.212564,50.4913749 100.944012,50.6744785 100.634766,50.8046875 C100.325519,50.9348965 99.9918638,51 99.6337891,51 C99.2757144,51 98.9420588,50.9348965 98.6328125,50.8046875 C98.3235662,50.6744785 98.0550142,50.4913749 97.8271484,50.2553711 C97.5992827,50.0193673 97.420248,49.7467463 97.2900391,49.4375 C97.1598301,49.1282537 97.0947266,48.8027361 97.0947266,48.4609375 L97.0947266,30.1503906 L95.9228516,30.1503906 C95.190426,30.1503906 94.5841495,29.9062524 94.1040039,29.4179688 C93.6238583,28.9296851 93.3837891,28.3193396 93.3837891,27.5869141 C93.3837891,26.8544885 93.6238583,26.248212 94.1040039,25.7680664 C94.5841495,25.2879208 95.190426,25.0478516 95.9228516,25.0478516 L97.0947266,25.0478516 L97.0947266,23.7783203 C97.0947266,15.9006768 101.033489,11.9619141 108.911133,11.9619141 C109.611006,11.9619141 110.209145,12.2101212 110.705566,12.706543 C111.201988,13.2029647 111.450195,13.8011033 111.450195,14.5009766 C111.450195,15.217126 111.201988,15.8234025 110.705566,16.3198242 C110.209145,16.816246 109.611006,17.0644531 108.911133,17.0644531 Z M122.265625,48.4609375 L113.476562,27.3427734 C113.313801,26.9684226 113.232422,26.5859395 113.232422,26.1953125 C113.232422,25.8535139 113.297525,25.5279963 113.427734,25.21875 C113.557943,24.9095037 113.736978,24.6368827 113.964844,24.4008789 C114.192709,24.1648751 114.461261,23.9817715 114.770508,23.8515625 C115.079754,23.7213535 115.41341,23.65625 115.771484,23.65625 C116.276044,23.65625 116.748045,23.7986639 117.1875,24.0834961 C117.626955,24.3683282 117.960611,24.7874321 118.188477,25.3408203 L125.048828,41.7226562 L131.90918,25.2919922 C132.104493,24.8037085 132.385252,24.4090184 132.751465,24.1079102 C133.117678,23.8068019 133.634437,23.65625 134.301758,23.65625 C134.659833,23.65625 134.993488,23.7213535 135.302734,23.8515625 C135.611981,23.9817715 135.880533,24.1648751 136.108398,24.4008789 C136.336264,24.6368827 136.519368,24.9095037 136.657715,25.21875 C136.796062,25.5279963 136.865234,25.8535139 136.865234,26.1953125 C136.865234,26.5533872 136.775717,26.9358704 136.59668,27.3427734 L122.558594,61.0097656 C122.347004,61.5143254 122.021487,61.9252914 121.582031,62.2426758 C121.142576,62.5600602 120.662438,62.71875 120.141602,62.71875 C119.409176,62.71875 118.8029,62.4746118 118.322754,61.9863281 C117.842608,61.4980444 117.602539,60.887699 117.602539,60.1552734 C117.602539,59.7646465 117.683918,59.3903013 117.84668,59.0322266 L122.265625,48.4609375 Z"></path>
            </g>
        </g>
    </g>
</svg>